<?xml version="1.0" standalone="no"?>
<!DOCTYPE svg PUBLIC "-//W3C//DTD SVG 20010904//EN"
 "http://www.w3.org/TR/2001/REC-SVG-20010904/DTD/svg10.dtd">
<svg version="1.0" xmlns="http://www.w3.org/2000/svg"
 width="456.000000pt" height="456.000000pt" viewBox="0 0 456.000000 456.000000"
 preserveAspectRatio="xMidYMid meet">
<metadata>
Created by potrace 1.14, written by Peter Selinger 2001-2017
</metadata>
<g transform="translate(0.000000,456.000000) scale(0.100000,-0.100000)"
fill="#000000" stroke="none">
<path d="M3475 2780 c-3 -5 -1 -10 4 -10 19 0 12 -17 -9 -23 -11 -3 -19 -11
-18 -19 2 -8 -7 -13 -24 -13 -31 -1 -39 -8 -55 -46 -11 -25 -10 -25 30 -25 23
1 42 6 45 14 2 7 -2 10 -12 6 -8 -3 -20 -3 -26 1 -18 11 41 37 67 30 18 -4 23
-1 23 14 0 11 -8 22 -17 24 -14 4 -13 5 3 6 21 1 43 31 23 31 -6 0 -7 5 -4 10
3 6 -1 10 -9 10 -8 0 -18 -4 -21 -10z"/>
<path d="M3257 2663 c-4 -3 -7 -11 -7 -17 0 -6 5 -5 12 2 6 6 9 14 7 17 -3 3
-9 2 -12 -2z"/>
<path d="M3193 2643 c-13 -8 -23 -22 -23 -29 0 -19 16 -18 24 1 3 8 15 15 26
15 11 0 20 7 20 15 0 19 -19 18 -47 -2z"/>
<path d="M1715 2630 c-9 -15 -1 -23 21 -18 15 3 16 4 1 16 -11 9 -17 10 -22 2z"/>
<path d="M1670 2615 c0 -8 2 -15 4 -15 2 0 6 7 10 15 3 8 1 15 -4 15 -6 0 -10
-7 -10 -15z"/>
<path d="M1484 2609 c-8 -14 11 -33 25 -25 6 4 11 11 11 16 0 13 -29 20 -36 9z"/>
<path d="M3055 2610 c-3 -5 -2 -10 4 -10 5 0 13 5 16 10 3 6 2 10 -4 10 -5 0
-13 -4 -16 -10z"/>
<path d="M1175 2592 c-4 -10 0 -12 11 -8 8 3 18 6 20 6 2 0 4 4 4 8 0 15 -29
9 -35 -6z"/>
<path d="M2016 2596 c8 -21 61 -31 80 -15 12 10 20 10 43 -4 19 -11 31 -13 41
-5 12 8 12 9 -2 4 -13 -4 -18 0 -18 15 0 15 -5 19 -17 15 -51 -14 -82 -16 -88
-7 -10 17 -45 14 -39 -3z"/>
<path d="M1303 2589 c-10 -10 -32 -16 -60 -18 -10 -1 -10 -7 -1 -26 15 -34 32
-32 24 3 l-6 27 15 -27 c18 -31 19 -32 45 -18 14 7 23 6 33 -4 10 -10 18 -11
24 -5 7 7 11 2 11 -15 0 -23 -3 -25 -16 -14 -9 7 -5 -3 8 -22 30 -44 35 -49
27 -28 -3 10 -2 20 3 23 6 4 10 17 10 29 0 13 7 29 15 36 20 17 11 28 -19 23
-18 -4 -32 2 -49 21 -26 28 -46 33 -64 15z"/>
<path d="M1750 2585 c-7 -8 -8 -15 -2 -15 5 0 15 7 22 15 7 8 8 15 2 15 -5 0
-15 -7 -22 -15z"/>
<path d="M3128 2580 c-20 -23 -13 -30 22 -19 14 4 20 7 13 8 -7 1 -10 8 -7 16
9 21 -8 19 -28 -5z"/>
<path d="M1817 2576 c-3 -8 5 -18 19 -25 14 -6 23 -15 20 -20 -11 -18 6 -41
31 -41 13 0 21 4 18 10 -3 6 1 10 9 10 9 0 16 5 16 10 0 6 -8 10 -17 10 -15 0
-16 2 -3 10 11 7 7 10 -17 10 -22 0 -36 6 -43 20 -12 23 -26 26 -33 6z"/>
<path d="M2330 2580 c-8 -5 -10 -10 -5 -10 6 0 17 5 25 10 8 5 11 10 5 10 -5
0 -17 -5 -25 -10z"/>
<path d="M2748 2583 c6 -2 18 -2 25 0 6 3 1 5 -13 5 -14 0 -19 -2 -12 -5z"/>
<path d="M2450 2569 c0 -5 5 -7 10 -4 6 3 10 8 10 11 0 2 -4 4 -10 4 -5 0 -10
-5 -10 -11z"/>
<path d="M2970 2570 c0 -5 7 -10 15 -10 8 0 15 5 15 10 0 6 -7 10 -15 10 -8 0
-15 -4 -15 -10z"/>
<path d="M2590 2551 c-17 -5 -25 -14 -24 -28 0 -19 -4 -20 -44 -16 -40 4 -44
3 -30 -11 12 -11 29 -13 72 -9 44 5 53 8 41 17 -13 10 -13 13 6 24 12 8 18 9
15 4 -3 -6 2 -8 14 -5 24 6 26 19 4 27 -18 7 -20 7 -54 -3z"/>
<path d="M2910 2545 c0 -9 5 -15 11 -13 6 2 11 8 11 13 0 5 -5 11 -11 13 -6 2
-11 -4 -11 -13z"/>
<path d="M2191 2531 c-20 -13 -1 -17 49 -10 27 3 34 7 18 7 -14 1 -32 4 -40 7
-7 3 -19 1 -27 -4z"/>
<path d="M1563 2510 c3 -11 1 -23 -5 -26 -13 -9 11 -24 38 -24 11 0 28 6 38
13 16 12 16 13 -5 14 -12 1 -28 11 -36 22 -18 27 -37 27 -30 1z"/>
<path d="M1270 2510 c0 -5 5 -10 10 -10 6 0 10 5 10 10 0 6 -4 10 -10 10 -5 0
-10 -4 -10 -10z"/>
<path d="M2805 2510 c-3 -5 -2 -10 4 -10 5 0 13 5 16 10 3 6 2 10 -4 10 -5 0
-13 -4 -16 -10z"/>
<path d="M2408 2498 c5 -5 16 -8 23 -6 8 3 3 7 -10 11 -17 4 -21 3 -13 -5z"/>
<path d="M2755 2500 c3 -5 8 -10 11 -10 2 0 4 5 4 10 0 6 -5 10 -11 10 -5 0
-7 -4 -4 -10z"/>
<path d="M1787 2460 c-18 -18 -18 -19 0 -28 13 -7 24 -6 38 4 10 8 13 14 7 14
-7 0 -11 5 -9 11 4 19 -17 19 -36 -1z"/>
<path d="M2220 2429 c13 -23 33 -21 38 4 3 12 -4 17 -23 17 -23 0 -25 -2 -15
-21z"/>
<path d="M3362 2117 c-20 -29 -21 -32 -5 -36 9 -2 19 2 21 8 2 6 22 14 44 17
23 4 35 10 28 14 -7 4 -21 5 -31 3 -15 -4 -18 -1 -13 11 11 29 -20 17 -44 -17z"/>
<path d="M3417 2093 c-12 -12 -7 -22 8 -17 8 4 15 10 15 15 0 11 -14 12 -23 2z"/>
<path d="M3175 2038 c-30 -9 -43 -14 -57 -17 -4 -1 -22 -7 -40 -12 -32 -10
-79 -14 -228 -23 -41 -3 -109 -9 -150 -15 -41 -5 -147 -12 -235 -15 -221 -9
-272 -15 -279 -32 -3 -8 -2 -13 3 -9 5 3 73 6 150 6 78 0 141 4 141 7 0 14 88
11 100 -4 7 -7 20 -14 29 -14 14 1 14 2 -1 14 -10 7 -18 17 -18 21 0 4 6 2 14
-4 8 -7 26 -9 43 -5 26 6 27 5 9 -8 -18 -14 -18 -15 8 -20 14 -3 29 -1 32 4 4
6 10 5 15 -3 6 -10 9 -8 9 9 0 12 -6 22 -12 23 -23 1 34 19 61 19 183 1 371
21 371 40 0 7 28 17 78 26 14 3 25 -1 28 -11 4 -8 10 -15 15 -15 6 0 6 8 0 19
-6 10 -7 21 -4 25 10 9 -48 6 -82 -6z"/>
<path d="M1583 1939 c39 -11 141 -14 155 -5 7 4 12 2 12 -3 0 -11 87 -7 98 3
6 7 -33 9 -188 11 -64 1 -94 -1 -77 -6z"/>
<path d="M1995 1943 c-67 -6 -73 -16 -15 -24 81 -10 148 -10 131 0 -7 5 -10
14 -7 20 7 11 -20 12 -109 4z"/>
<path d="M2130 1925 c15 -18 40 -20 40 -2 0 7 -12 14 -26 15 -22 2 -25 0 -14
-13z"/>
<path d="M3266 1926 c29 -20 84 -25 84 -7 0 17 -42 24 -51 10 -6 -11 -11 -11
-21 -1 -6 6 -17 12 -22 12 -6 0 -1 -6 10 -14z"/>
<path d="M3173 1907 c5 -17 37 -21 37 -5 0 8 -9 14 -21 15 -12 1 -19 -3 -16
-10z"/>
<path d="M2460 1900 c-9 -6 -10 -10 -3 -10 6 0 15 5 18 10 8 12 4 12 -15 0z"/>
<path d="M2860 1890 c0 -5 7 -10 15 -10 8 0 15 5 15 10 0 6 -7 10 -15 10 -8 0
-15 -4 -15 -10z"/>
<path d="M1855 1867 c1 -12 8 -22 15 -22 21 0 23 23 2 34 -16 8 -18 6 -17 -12z"/>
<path d="M2170 1881 c0 -5 -3 -17 -7 -27 -4 -11 -2 -15 7 -12 20 6 33 48 15
48 -8 0 -15 -4 -15 -9z"/>
<path d="M2289 1873 c-13 -17 -13 -17 6 -3 11 8 22 16 24 17 2 2 0 3 -6 3 -6
0 -17 -8 -24 -17z"/>
<path d="M2348 1883 c7 -3 16 -2 19 1 4 3 -2 6 -13 5 -11 0 -14 -3 -6 -6z"/>
<path d="M1418 1873 c7 -3 16 -2 19 1 4 3 -2 6 -13 5 -11 0 -14 -3 -6 -6z"/>
<path d="M1296 1862 c-3 -5 1 -9 9 -9 8 0 15 4 15 9 0 4 -4 8 -9 8 -6 0 -12
-4 -15 -8z"/>
<path d="M1491 1851 c-9 -15 -7 -20 11 -24 27 -8 38 -1 38 24 0 25 -36 25 -49
0z"/>
<path d="M3395 1850 c3 -5 12 -7 20 -3 21 7 19 13 -6 13 -11 0 -18 -4 -14 -10z"/>
<path d="M1375 1840 c-3 -6 1 -7 9 -4 18 7 21 14 7 14 -6 0 -13 -4 -16 -10z"/>
<path d="M1678 1843 c7 -3 16 -2 19 1 4 3 -2 6 -13 5 -11 0 -14 -3 -6 -6z"/>
<path d="M1360 1809 c17 -17 33 -29 36 -26 6 6 -47 57 -59 57 -5 0 6 -14 23
-31z"/>
<path d="M3431 1818 c-1 -20 14 -24 25 -6 4 6 3 8 -4 4 -5 -3 -13 0 -15 6 -3
8 -6 6 -6 -4z"/>
<path d="M2560 1800 c0 -5 5 -10 11 -10 5 0 7 5 4 10 -3 6 -8 10 -11 10 -2 0
-4 -4 -4 -10z"/>
<path d="M3350 1801 c0 -5 6 -11 13 -14 6 -2 9 -8 5 -12 -4 -4 -16 -2 -25 5
-11 9 -10 5 3 -9 18 -19 25 -21 42 -12 11 6 32 11 46 11 14 0 26 5 26 11 0 8
-13 9 -39 5 -29 -4 -40 -2 -45 9 -6 16 -26 21 -26 6z"/>
<path d="M1580 1761 c-5 -11 -6 -22 -1 -25 11 -7 43 28 34 37 -11 12 -22 8
-33 -12z"/>
<path d="M2388 1773 c7 -3 16 -2 19 1 4 3 -2 6 -13 5 -11 0 -14 -3 -6 -6z"/>
<path d="M2958 1763 c7 -3 16 -2 19 1 4 3 -2 6 -13 5 -11 0 -14 -3 -6 -6z"/>
<path d="M1463 1753 c-7 -2 -13 -12 -13 -20 0 -13 2 -13 17 -2 15 13 16 11 10
-10 -8 -32 10 -56 29 -40 11 9 14 8 14 -5 0 -20 39 -18 64 4 15 12 18 11 22
-7 4 -12 22 -27 45 -36 37 -15 39 -14 41 4 0 10 1 25 2 32 1 6 -6 13 -14 13
-8 1 -17 3 -20 4 -3 1 -14 4 -25 5 -128 14 -136 16 -145 41 -5 13 -11 24 -12
23 -2 0 -9 -3 -15 -6z"/>
<path d="M3222 1730 c-9 -15 -17 -18 -35 -11 -38 15 -104 16 -120 3 -9 -8 -26
-10 -41 -6 -14 3 -34 3 -43 -2 -10 -4 -25 -8 -33 -9 -8 -1 -23 -5 -34 -10 -11
-5 -26 -4 -36 3 -19 12 -60 5 -60 -9 0 -5 -7 -9 -16 -9 -8 0 -12 -5 -9 -10 4
-6 10 -8 15 -5 12 8 110 -15 110 -26 0 -22 28 -7 35 19 l7 27 19 -24 c20 -25
53 -23 43 4 -4 10 0 15 14 15 12 0 24 5 27 10 10 15 64 9 58 -7 -6 -15 13 -18
22 -3 4 6 15 8 26 5 12 -4 19 -2 19 6 0 9 3 10 11 2 13 -13 56 6 84 37 18 20
18 20 -16 20 -23 0 -38 -6 -47 -20z"/>
<path d="M2350 1718 c-33 -50 -33 -50 -1 -33 19 9 31 23 31 35 0 26 -12 25
-30 -2z"/>
<path d="M2155 1700 c-3 -5 -8 -23 -10 -39 -3 -30 12 -45 38 -36 6 3 21 -8 32
-25 17 -26 24 -29 50 -24 40 8 45 12 39 29 -3 7 -12 11 -21 8 -11 -4 -14 0
-11 18 2 20 -1 24 -21 21 -28 -3 -58 18 -41 28 7 5 0 12 -19 18 -18 6 -33 7
-36 2z"/>
<path d="M1820 1692 c0 -4 9 -13 20 -20 11 -7 20 -19 20 -27 0 -8 5 -15 11
-15 6 0 9 7 6 14 -5 11 -2 13 11 7 9 -4 32 -14 50 -22 17 -7 32 -20 32 -27 0
-10 7 -12 23 -8 12 3 30 6 40 6 9 0 17 7 17 15 0 19 9 19 32 -2 10 -9 21 -13
26 -9 13 13 -39 46 -73 46 -18 0 -39 8 -49 18 -18 21 -78 27 -107 11 -15 -7
-21 -6 -25 6 -6 15 -34 22 -34 7z"/>
<path d="M2694 1691 c4 -5 2 -21 -4 -35 -6 -17 -6 -26 0 -26 6 0 10 5 10 11 0
5 5 7 10 4 6 -3 10 1 10 10 0 13 6 16 25 11 33 -8 32 6 -2 22 -32 14 -57 16
-49 3z"/>
<path d="M2410 1650 c0 -5 7 -10 16 -10 8 0 12 5 9 10 -3 6 -10 10 -16 10 -5
0 -9 -4 -9 -10z"/>
<path d="M1638 1623 c-10 -2 -18 -9 -18 -14 0 -6 8 -5 20 1 11 6 20 13 20 15
0 3 -1 4 -2 4 -2 -1 -11 -3 -20 -6z"/>
<path d="M2715 1620 c-3 -5 -1 -10 4 -10 6 0 11 5 11 10 0 6 -2 10 -4 10 -3 0
-8 -4 -11 -10z"/>
<path d="M1762 1603 c5 -7 14 -10 19 -7 16 10 9 23 -10 21 -15 -1 -17 -4 -9
-14z"/>
<path d="M2585 1610 c3 -5 10 -10 16 -10 5 0 9 5 9 10 0 6 -7 10 -16 10 -8 0
-12 -4 -9 -10z"/>
<path d="M2300 1550 c0 -5 5 -10 10 -10 6 0 10 5 10 10 0 6 -4 10 -10 10 -5 0
-10 -4 -10 -10z"/>
<path d="M2101 1524 c0 -11 3 -14 6 -6 3 7 2 16 -1 19 -3 4 -6 -2 -5 -13z"/>
<path d="M1382 1488 c40 -62 208 -127 403 -158 39 -6 81 -13 94 -15 164 -29
613 -37 811 -15 58 6 126 12 152 13 25 1 46 6 45 11 -2 7 17 11 88 19 11 1 23
6 26 11 4 5 24 10 44 12 21 1 41 8 45 15 5 6 15 9 25 6 9 -4 21 -2 28 3 58 47
76 60 86 60 6 0 11 6 11 14 0 8 3 22 7 31 5 15 1 16 -28 10 -19 -4 -54 -13
-79 -20 -48 -14 -188 -41 -205 -39 -5 1 -21 4 -34 9 -13 4 -21 3 -18 -2 3 -5
-13 -10 -36 -11 -114 -5 -164 -10 -182 -15 -17 -5 -191 -13 -437 -20 -38 -1
-68 -5 -68 -9 0 -4 -6 -6 -12 -3 -23 7 -325 25 -406 25 -19 -1 -31 3 -28 9 9
13 -23 22 -43 12 -16 -9 -180 29 -254 58 -42 17 -51 14 -35 -11z"/>
<path d="M2810 1470 c0 -5 5 -10 10 -10 6 0 10 5 10 10 0 6 -4 10 -10 10 -5 0
-10 -4 -10 -10z"/>
</g>
</svg>
